<?xml version="1.0" encoding="utf-8"?>
<!DOCTYPE svg PUBLIC "-//W3C//DTD SVG 1.1//EN"
  "http://www.w3.org/Graphics/SVG/1.1/DTD/svg11.dtd">
<svg version="1.1" id="Layer_1" xmlns="http://www.w3.org/2000/svg"
 xmlns:xlink="http://www.w3.org/1999/xlink"
 x="0px" y="0px" width="418px" height="71px" xml:space="preserve">

<g xmlns="http://www.w3.org/2000/svg" id="columnGroup">
<rect x="0" y="0" width="418" height="20" fill="black"/>
<svg version="1.1" xmlns="http://www.w3.org/2000/svg"
 x="0" y="0" width="19" height="20" viewBox="0 0 424.879 463.582" xml:space="preserve">
<polygon points="424.807,463.582 0.19,463.582 0,-0.225 424.879,-0.225 "/>
<path fill="#FFFF00" d="M387.348,37.062L37.057,37.018l-0.116,222.979h60.557c49.849,0.935,45.194,34.814,49.571,65.675
  c4.456,31.379,34.468,46.76,59.641,46.76c32.953,0,59.046-28.257,59.046-61.951c0-25.963-11.911-44.657-63.168-66.515
  c-58.128-24.602-72.77-59.226-72.77-92.935c0-55.127,42.109-92.024,91.079-92.024c25.641,0,53.601,8.185,72.524,29.534
  c15.329,17.285,20.849,34.666,20.241,56.166c-0.275,9.426-1.374,21.486,17.714,21.753l55.971,0.131V37.062z"/>
<path fill="#FF0000" d="M387.791,197.833l-52.795-0.221c0,0-55.858,4.346-52.706-38.485c1.514-20.632-4.568-36.385-8.854-43.01
  c-11.133-17.205-29.703-25.805-52.119-25.805c-32.959,0-57.178,27.461-57.178,56.166c0,25.051,12.166,53.02,63.873,73.067
  c44.864,17.308,72.748,47.447,72.748,89.358c0,44.179-33.549,95.72-93.963,95.72c-31.125,0-59.284-7.412-80.861-38.289
  c-10.965-15.672-15.176-35.928-15.938-56.166c-0.581-15.52-4.689-18.974-15.359-18.974l-57.567,0.19l0.038,134.242h350.523V199.733
  L387.791,197.833z"/>
<path d="M384.501,199.988 M388.87,200.116l-51.364-0.003c-0.364,0.022-2.746-0.035-4.699-0.035l0,0
  c-6.149-0.018-18.862-0.631-30.446-5.676l0,0c-11.566-4.92-22.218-15.128-22.124-32.89l0,0c0-1.177,0.048-2.379,0.136-3.608l0,0
  c0.163-2.309,0.247-4.502,0.247-6.584l0,0c-0.014-16.053-4.575-25.763-8.109-31.267l0,0c-13.964-21.483-31.241-27.7-51.953-27.463
  c-15.976,0.184-30.054,7.766-39.475,18l0,0c-9.408,10.233-14.907,23.936-14.896,37.508l0,0c0.014,12.042,3.024,24.252,12.252,36.075
  l0,0c9.241,11.816,24.887,23.295,50.414,33.192l0,0c45.533,17.453,73.333,49.172,73.266,92.452l0,0
  c-0.008,22.765-8.019,46.835-23.879,65.354l0,0c-15.838,18.521-39.678,31.369-70.69,31.344l0,0c-0.182,0-0.362,0.002-0.544,0.002
  l0,0c-31.303-0.002-60.706-7.923-82.696-39.527l0,0c-11.415-16.309-14.679-34.253-15.443-54.699l0,0
  c-0.264-7.466-1.741-12.382-3.908-15.159l0,0c-2.162-2.739-4.98-3.994-9.776-4.047h-0.759H36.493v-36.043l64.045,0.054
  c11.989,0.2,19.862,2.846,27.063,6.951l0,0c7.21,4.097,11.901,9.976,14.888,16.627l0,0c5.951,13.33,5.767,29.693,7.958,44.846l0,0
  c2.123,14.831,10.171,25.756,20.83,33.17l0,0c10.65,7.395,23.936,11.106,35.939,11.095l0,0c15.631-0.001,29.616-6.687,39.765-17.429
  l0,0c10.143-10.746,16.377-25.525,16.377-41.619l0,0c-0.041-12.565-2.766-22.746-11.641-32.878l0,0
  c-8.896-10.124-24.323-20.127-49.759-30.963l0,0c-29.424-12.447-48.135-27.575-59.446-44.085l0,0
  c-11.313-16.501-15.103-34.263-15.092-51.524l0,0c-0.011-28.306,10.85-52.127,28.058-68.769l0,0
  c17.204-16.654,40.711-26.158,65.925-26.158l0,0c26.206-0.013,53.583,8.187,73.194,30.304l0,0
  c15.083,16.974,21.544,35.953,21.514,56.848l0,0c0,0.992-0.011,1.99-0.038,3.013l0,0c-0.035,1.031-0.062,2.07-0.062,3.09l0,0
  c-0.016,4.074,0.509,7.546,2.384,9.817l0,0c1.828,2.263,5.458,4.247,13.483,4.379h3.04l54.142,0.019v36.287H388.87z"/>
</svg>
<svg x="30" y="4" width="13" height="12" version="1.1" xmlns="http://www.w3.org/2000/svg"><path fill="#db6c19" stroke="none" d="M28.219,22.017C28.693,21.076999999999998,29.060000000000002,20.076999999999998,29.301000000000002,19.029C30.243000000000002,15.463000000000001,29.96,12.352,29.96,12.352L29.637,14.4C29.637,14.4,29.173000000000002,10.605,28.605,9.186C27.734,7.0120000000000005,27.347,7.029,27.345,7.0329999999999995C27.881,8.376,27.833,9.145999999999999,27.823,9.262C27.812,9.246,27.804000000000002,9.231,27.797,9.217C27.667,8.901,27.009,7.445,25.597,6.413C23.124000000000002,3.9960000000000004,19.723000000000003,2.5020000000000002,15.964000000000002,2.5010000000000003C11.954000000000002,2.5010000000000003,8.347000000000001,4.2010000000000005,5.843000000000002,6.91C5.526000000000002,6.4590000000000005,5.268000000000002,5.91,5.245000000000002,5.306C5.245000000000002,5.306,5.243000000000002,5.308,5.239000000000002,5.312C5.239000000000002,5.301,5.2360000000000015,5.291,5.2360000000000015,5.282C5.2360000000000015,5.282,3.6450000000000014,6.497,3.8170000000000015,9.774000000000001C3.5220000000000016,10.334000000000001,3.2630000000000017,10.917000000000002,3.0490000000000013,11.519000000000002C2.676,12.314,2.305,13.471,2,15.167C2,15.167,2.1310000000000002,14.756,2.394,14.205C2.331,14.674,2.2920000000000003,15.151,2.2800000000000002,15.634C2.1910000000000003,16.457,2.1630000000000003,17.451,2.241,18.643C2.241,18.643,2.2720000000000002,18.247,2.375,17.648C3.2,24.326,8.966,29.5,15.961,29.5L15.961,29.5C17.8,29.5,19.555,29.141,21.157,28.491C24.796,27.183,26.949,24.672,28.219,22.017ZM15.962,3.394C18.38,3.394,20.637999999999998,4.058,22.564999999999998,5.207C20.317999999999998,4.692,19.171,4.952999999999999,19.180999999999997,4.965C19.194,4.979,22.526999999999997,5.539,23.118,6.34C23.118,6.34,21.701999999999998,6.34,20.293999999999997,6.739C20.229999999999997,6.758,25.476999999999997,7.385,26.548999999999996,12.552C26.548999999999996,12.552,25.973999999999997,11.37,25.262999999999995,11.168C25.730999999999995,12.568999999999999,25.610999999999994,15.230999999999998,25.163999999999994,16.554C25.105999999999995,16.723,25.046999999999993,15.817999999999998,24.171999999999993,15.428999999999998C24.451999999999995,17.412999999999997,24.152999999999995,20.561999999999998,22.755999999999993,21.429C22.648999999999994,21.497,23.633999999999993,18.322,22.954999999999995,19.548C18.908999999999995,25.662999999999997,14.097999999999995,22.023,12.144999999999994,20.726C13.711999999999994,21.104,15.374999999999995,20.831,16.337999999999994,20.180999999999997C17.308999999999994,19.525999999999996,17.884999999999994,19.048,18.401999999999994,19.159999999999997C18.916999999999994,19.274999999999995,19.259999999999994,18.763999999999996,18.858999999999995,18.309999999999995C18.459999999999994,17.856999999999996,17.482999999999993,17.232999999999997,16.165999999999993,17.572999999999997C15.236999999999993,17.813999999999997,14.082999999999993,18.826999999999998,12.324999999999992,17.801999999999996C10.824999999999992,16.924999999999997,10.834999999999992,16.212999999999997,10.834999999999992,15.759999999999996C10.834999999999992,15.403999999999996,11.088999999999992,14.902999999999997,11.560999999999993,14.758999999999997C12.134999999999993,14.818999999999997,12.593999999999992,14.965999999999998,13.080999999999992,15.211999999999996C13.085999999999993,15.080999999999996,13.086999999999993,14.904999999999996,13.079999999999993,14.706999999999995C13.118999999999993,14.631999999999996,13.094999999999994,14.403999999999995,13.033999999999994,14.125999999999996C12.997999999999994,13.845999999999997,12.937999999999994,13.558999999999996,12.845999999999993,13.295999999999996C12.854999999999993,13.293999999999995,12.862999999999992,13.289999999999996,12.866999999999994,13.275999999999996C12.941999999999993,12.939999999999996,14.989999999999995,11.771999999999997,15.138999999999994,11.658999999999995C15.289999999999994,11.547999999999995,15.682999999999995,11.290999999999995,15.638999999999994,10.506999999999996C15.623999999999993,10.247999999999996,15.581999999999994,10.218999999999996,13.431999999999995,10.227999999999996C12.524999999999995,10.230999999999996,12.022999999999994,9.355999999999996,11.860999999999995,9.014999999999997C12.080999999999996,7.814999999999997,12.713999999999995,6.958999999999997,13.757999999999996,6.380999999999997C13.777999999999995,6.3699999999999966,13.772999999999996,6.359999999999997,13.749999999999996,6.3539999999999965C13.965999999999996,6.229999999999997,11.254999999999995,6.347999999999996,10.032999999999996,7.916999999999996C9.705999999999996,7.9629999999999965,9.255999999999997,7.870999999999996,8.752999999999997,7.870999999999996C8.121999999999996,7.870999999999996,7.626999999999997,7.937999999999996,7.167999999999997,8.052999999999995C7.12,8.065,7.048,8.063,6.963,8.052C6.835,7.958,6.644,7.802,6.436,7.6C6.595,7.425,6.756,7.253,6.925,7.087C9.239,4.805,12.432,3.395,15.962,3.394Z" stroke-width="0" transform="scale(0.4)"></path></svg>
<rect x="30" y="18" width="57" height="2" fill="#c7c4c4" class="indicator"/>
<rect x="30" y="21" width="57" height="16" fill="#26b36b" class="matrix-bg"/>
<svg x="56" y="23" width="13" height="13" version="1.1" xmlns="http://www.w3.org/2000/svg" xmlns:xlink="http://www.w3.org/1999/xlink" viewBox="0 0 45.333 45.333" enable-background="new 0 0 45.333 45.333" xml:space="preserve">
<g>
  <path fill="#010101" d="M17.529,37.478c0,0-3.988-1.258-5.142-1.479s-2.392-0.33-1.801-1.613s0.437-1.615,0.232-2.84
    s0.956-1.264,1.938-1.291s0.577-0.686,0.805-0.99s1.172-1.09,2.284,0.375c1.112,1.463,1.247,2.416,2.354,3.49
    S20.443,37.322,17.529,37.478z"/>
  <path fill="#010101" d="M26.378,36.474c0,0,0.105-5.277,0.429-6.416c0.323-1.137,0.997-1.023,1.165-0.467s0.714,1.711,1.551,1.576
    c0.837-0.137,0.865,0.031,1.407-0.525s1.368-1.949,1.573-0.01s1.237,1.303,1.871,2.092c0.99,1.441-0.571,0.918-2.438,2.492
    c-1.867,1.572-2.309,2.223-3.445,2.361C27.354,37.718,26.548,37.095,26.378,36.474z"/>
  <path fill="#010101" d="M19.567,34.353c0,0,3.102,1.715,6.538-1.846c-0.313,3.064-0.269,4.078-0.269,4.078s-4.509-0.928-6.298,0.26
    C20.292,35.322,19.634,34.759,19.567,34.353z"/>
  <path fill="#010101" d="M30.631,21.812c-2.952-3.604-3.298-5.208-3.407-7.612s-0.547-5.533-5.047-5.785s-3.896,4.47-3.631,8.317
    c-0.131,3.597-1.932,2.903-2.814,5.384c-0.602,2.23-2.113,5.101-2.113,5.101s-0.096,0.242-0.222,0.766
    c0.688-1.246,2.655,1.277,3.03,1.652s2.188,1.688,0.553-0.109c-1.635-1.799-0.447-4.168,0.58-6.376
    c1.027-2.209,1.742-5.045,1.93-4.857s0.719,0.969,2.469,0.906s2.375-1.719,2.75-1.438s0.5,1.344,2.156,4.781
    c1.656,3.437,1.125,5.531,1.125,5.531c0.094,0.75,1,2.344,1.688,2.344s2.156-1.031,2.582-1.635
    C32.427,26.853,32.583,24.728,30.631,21.812z M23.427,12.815c1.469-0.024,1.5,0.944,1.406,1.788s-0.281,1.25-0.281,1.25
    l-1.906-0.781C22.646,15.072,21.958,12.84,23.427,12.815z M19.333,13.166c1.156-1.094,1.5,0.688,1.5,1.031s0,0.844,0,0.844
    L19.49,15.76C19.49,15.76,18.177,14.26,19.333,13.166z M24.99,16.76c-0.281,0.406-1.969,1.938-3.438,2.094s-2.375-1.75-2.375-1.75
    c-0.062-1.031,1.406-1.719,2.531-1.812S25.271,16.354,24.99,16.76z"/>
</g>
</svg>
<rect x="30" y="38" width="57" height="16" fill="#c7c4c4" class="matrix-bg"/>
<svg x="56" y="40" width="13" height="13" version="1.1" xmlns="http://www.w3.org/2000/svg"><path style="-webkit-tap-highlight-color: rgba(0, 0, 0, 0);" fill="#000000" stroke="none" d="M15.517,15.082C11.766,13.141,10.039,11.203000000000001,4.933999999999999,13.999C5.8839999999999995,10.671000000000001,6.357999999999999,9.007000000000001,7.308,5.678000000000001C12.415,2.882000000000001,14.141,4.819000000000001,17.892,6.760000000000001C16.941,10.088,16.467,11.752,15.517,15.082ZM15.042,16.746C11.29,14.806,9.564,12.866999999999999,4.458,15.662999999999998C3.508,18.991,3.0330000000000004,20.654999999999998,2.083,23.983999999999998C7.189,21.188,8.916,23.127,12.669,25.066C13.618,21.738,14.092,20.074,15.042,16.746ZM29.918,7.716C24.813,10.512,23.086,9.453,19.334,7.513C18.384,10.842,17.909,12.507,16.959,15.834999999999999C20.711,17.776,22.436999999999998,18.835,27.543,16.038C28.492,12.709,28.968,11.045,29.918,7.716ZM27.068,17.701C21.962000000000003,20.499000000000002,20.235,19.438000000000002,16.483,17.498C15.533000000000001,20.827,15.058,22.492,14.108,25.82C17.86,27.761,19.586,28.821,24.693,26.022000000000002C25.644,22.693,26.119,21.029,27.068,17.701Z" stroke-width="0" transform="scale(0.4)"></path><rect style="-webkit-tap-highlight-color: rgba(0, 0, 0, 0); opacity: 0;" x="0" y="0" width="32" height="32" r="0" rx="0" ry="0" fill="#000000" stroke="none" stroke-width="0" opacity="0"></rect></svg>
<rect x="30" y="55" width="57" height="16" fill="#26b36b" class="matrix-bg"/>
<svg version="1.1" xmlns="http://www.w3.org/2000/svg" x="56" y="57" width="13" height="13" viewBox="0 0 101 121" enable-background="new 0 0 101 121" xml:space="preserve">
<g>
  <path d="M28.709,28.63c3.516,0,7.758,0.726,12.727,2.179c5.015,1.454,8.343,2.18,9.984,2.18c2.109,0,5.555-0.82,10.336-2.461
    c4.781-1.64,8.93-2.461,12.445-2.461c5.766,0,10.898,1.547,15.398,4.641c2.531,1.781,5.039,4.195,7.523,7.242
    c-3.75,3.188-6.492,6.024-8.227,8.508c-3.141,4.5-4.711,9.469-4.711,14.905c0,5.953,1.664,11.32,4.992,16.104
    c3.328,4.78,7.125,7.803,11.393,9.068c-1.783,5.768-4.736,11.795-8.861,18.074c-6.234,9.42-12.422,14.131-18.562,14.131
    c-2.438,0-5.812-0.77-10.125-2.32c-4.266-1.551-7.875-2.32-10.828-2.32s-6.398,0.801-10.335,2.391
    c-3.891,1.64-7.055,2.459-9.493,2.459c-7.359,0-14.578-6.229-21.656-18.699C3.631,89.919,0.092,77.824,0.092,65.967
    c0-11.017,2.695-19.993,8.086-26.931C13.615,32.098,20.459,28.63,28.709,28.63 M73.006,0.927c0.188,0.609,0.305,1.148,0.352,1.617
    s0.07,0.938,0.07,1.406c0,3-0.703,6.281-2.109,9.844c-1.406,3.562-3.633,6.867-6.68,9.914c-2.625,2.578-5.227,4.312-7.805,5.203
    c-1.641,0.516-4.125,0.914-7.453,1.195c0.094-7.125,1.945-13.289,5.555-18.492C58.592,6.412,64.615,2.849,73.006,0.927"/>
</g>
</svg>
<text x="30" y="14" font-size="11px" text-anchor="left">
<tspan x="46" font-weight="200" fill="white" class="head">Firefox</tspan>
<tspan x="37" dy="17px" font-weight="600">27</tspan>
<tspan x="71" dy="0" font-size="7px" fill="white"></tspan>
<tspan x="37" dy="17px" font-weight="600">28</tspan>
<tspan x="71" dy="0" font-size="7px" fill="white">8.1</tspan>
<tspan x="37" dy="17px" font-weight="600">28</tspan>
<tspan x="71" dy="0" font-size="7px" fill="white">10.9</tspan>
</text>
<svg x="111" y="4" width="13" height="12" version="1.1" xmlns="http://www.w3.org/2000/svg"><path style="-webkit-tap-highlight-color: rgba(0, 0, 0, 0);" fill="#3880c2" stroke="none" d="M10.915,16.001C10.915,13.196000000000002,13.196,10.914000000000001,16,10.914000000000001S21.086,13.196000000000002,21.086,16.001C21.086,18.805,18.805,21.087000000000003,15.999999999999998,21.087000000000003S10.915,18.806,10.915,16.001L10.915,16.001Z" stroke-width="0" transform="scale(0.4)"></path><path style="-webkit-tap-highlight-color: rgba(0, 0, 0, 0);" fill="#e53f39" stroke="none" d="M5.056,7.271C7.622,4.059,11.57,2,16,2C21.125,2,25.606,4.791,28.046,8.9C28.046,8.9,16.209,8.9,16,8.9C12.667,8.9,9.86,11.124,9.062999999999999,14.211L5.056,7.271Z" stroke-width="0" transform="scale(0.4)"></path><path style="-webkit-tap-highlight-color: rgba(0, 0, 0, 0);" fill="#fbd10b" stroke="none" d="M29,11C29.621,12.583,30,14.196,30,16.001C30,23.68,23.816,29.914,16.159,30L21.884999999999998,20.083C22.691999999999997,18.923,23.163999999999998,17.517,23.163999999999998,16.000999999999998C23.164,14,22.327,12.301,21,11H29Z" stroke-width="0" transform="scale(0.4)"></path><path style="-webkit-tap-highlight-color: rgba(0, 0, 0, 0);" fill="#4db849" stroke="none" d="M13.911,29.847C7.17,28.838,2,23.023,2,16.001C2,13.506,2.653,11.165000000000001,3.7969999999999997,9.136000000000001L9.512,19.036C10.657,21.473000000000003,13.134,23.165,16,23.165C16.665,23.165,17.309,23.073,17.919,22.903L13.911,29.847Z" stroke-width="0" transform="scale(0.4)"></path><rect style="-webkit-tap-highlight-color: rgba(0, 0, 0, 0); opacity: 0;" x="0" y="0" width="32" height="32" r="0" rx="0" ry="0" fill="#ffffff" stroke="none" stroke-width="0" opacity="0"></rect></svg>
<rect x="111" y="18" width="57" height="2" fill="#26b36b" class="indicator"/>
<rect x="111" y="21" width="57" height="16" fill="#26b36b" class="matrix-bg"/>
<svg x="137" y="23" width="13" height="13" version="1.1" xmlns="http://www.w3.org/2000/svg"><path style="-webkit-tap-highlight-color: rgba(0, 0, 0, 0);" fill="#000000" stroke="none" d="M15.517,15.082C11.766,13.141,10.039,11.203000000000001,4.933999999999999,13.999C5.8839999999999995,10.671000000000001,6.357999999999999,9.007000000000001,7.308,5.678000000000001C12.415,2.882000000000001,14.141,4.819000000000001,17.892,6.760000000000001C16.941,10.088,16.467,11.752,15.517,15.082ZM15.042,16.746C11.29,14.806,9.564,12.866999999999999,4.458,15.662999999999998C3.508,18.991,3.0330000000000004,20.654999999999998,2.083,23.983999999999998C7.189,21.188,8.916,23.127,12.669,25.066C13.618,21.738,14.092,20.074,15.042,16.746ZM29.918,7.716C24.813,10.512,23.086,9.453,19.334,7.513C18.384,10.842,17.909,12.507,16.959,15.834999999999999C20.711,17.776,22.436999999999998,18.835,27.543,16.038C28.492,12.709,28.968,11.045,29.918,7.716ZM27.068,17.701C21.962000000000003,20.499000000000002,20.235,19.438000000000002,16.483,17.498C15.533000000000001,20.827,15.058,22.492,14.108,25.82C17.86,27.761,19.586,28.821,24.693,26.022000000000002C25.644,22.693,26.119,21.029,27.068,17.701Z" stroke-width="0" transform="scale(0.4)"></path><rect style="-webkit-tap-highlight-color: rgba(0, 0, 0, 0); opacity: 0;" x="0" y="0" width="32" height="32" r="0" rx="0" ry="0" fill="#000000" stroke="none" stroke-width="0" opacity="0"></rect></svg>
<rect x="111" y="38" width="57" height="16" fill="#26b36b" class="matrix-bg"/>
<svg x="137" y="40" width="13" height="13" version="1.1" xmlns="http://www.w3.org/2000/svg" xmlns:xlink="http://www.w3.org/1999/xlink" viewBox="0 0 45.333 45.333" enable-background="new 0 0 45.333 45.333" xml:space="preserve">
<g>
  <path fill="#010101" d="M17.529,37.478c0,0-3.988-1.258-5.142-1.479s-2.392-0.33-1.801-1.613s0.437-1.615,0.232-2.84
    s0.956-1.264,1.938-1.291s0.577-0.686,0.805-0.99s1.172-1.09,2.284,0.375c1.112,1.463,1.247,2.416,2.354,3.49
    S20.443,37.322,17.529,37.478z"/>
  <path fill="#010101" d="M26.378,36.474c0,0,0.105-5.277,0.429-6.416c0.323-1.137,0.997-1.023,1.165-0.467s0.714,1.711,1.551,1.576
    c0.837-0.137,0.865,0.031,1.407-0.525s1.368-1.949,1.573-0.01s1.237,1.303,1.871,2.092c0.99,1.441-0.571,0.918-2.438,2.492
    c-1.867,1.572-2.309,2.223-3.445,2.361C27.354,37.718,26.548,37.095,26.378,36.474z"/>
  <path fill="#010101" d="M19.567,34.353c0,0,3.102,1.715,6.538-1.846c-0.313,3.064-0.269,4.078-0.269,4.078s-4.509-0.928-6.298,0.26
    C20.292,35.322,19.634,34.759,19.567,34.353z"/>
  <path fill="#010101" d="M30.631,21.812c-2.952-3.604-3.298-5.208-3.407-7.612s-0.547-5.533-5.047-5.785s-3.896,4.47-3.631,8.317
    c-0.131,3.597-1.932,2.903-2.814,5.384c-0.602,2.23-2.113,5.101-2.113,5.101s-0.096,0.242-0.222,0.766
    c0.688-1.246,2.655,1.277,3.03,1.652s2.188,1.688,0.553-0.109c-1.635-1.799-0.447-4.168,0.58-6.376
    c1.027-2.209,1.742-5.045,1.93-4.857s0.719,0.969,2.469,0.906s2.375-1.719,2.75-1.438s0.5,1.344,2.156,4.781
    c1.656,3.437,1.125,5.531,1.125,5.531c0.094,0.75,1,2.344,1.688,2.344s2.156-1.031,2.582-1.635
    C32.427,26.853,32.583,24.728,30.631,21.812z M23.427,12.815c1.469-0.024,1.5,0.944,1.406,1.788s-0.281,1.25-0.281,1.25
    l-1.906-0.781C22.646,15.072,21.958,12.84,23.427,12.815z M19.333,13.166c1.156-1.094,1.5,0.688,1.5,1.031s0,0.844,0,0.844
    L19.49,15.76C19.49,15.76,18.177,14.26,19.333,13.166z M24.99,16.76c-0.281,0.406-1.969,1.938-3.438,2.094s-2.375-1.75-2.375-1.75
    c-0.062-1.031,1.406-1.719,2.531-1.812S25.271,16.354,24.99,16.76z"/>
</g>
</svg>
<text x="111" y="14" font-size="11px" text-anchor="left">
<tspan x="127" font-weight="200" fill="white" class="head">Chrome</tspan>
<tspan x="118" dy="17px" font-weight="600">27</tspan>
<tspan x="152" dy="0" font-size="7px" fill="white">8.1</tspan>
<tspan x="118" dy="17px" font-weight="600">28</tspan>
<tspan x="152" dy="0" font-size="7px" fill="white"></tspan>
</text>
<svg x="192" y="4" width="13" height="12" version="1.1" xmlns="http://www.w3.org/2000/svg"><path fill="#37a5e2" stroke="none" d="M23.12,17.979H29.903000000000002C29.956000000000003,17.508,29.977000000000004,17.028,29.977000000000004,16.535999999999998C29.977000000000004,14.230999999999998,29.358000000000004,12.067999999999998,28.277000000000005,10.205999999999998C29.394000000000005,7.236999999999998,29.355000000000004,4.717999999999997,27.860000000000003,3.211999999999998C26.436000000000003,1.794999999999998,22.621000000000002,2.025999999999998,18.306000000000004,3.935999999999998C17.988000000000003,3.911999999999998,17.665000000000006,3.8989999999999982,17.340000000000003,3.8989999999999982C11.419000000000004,3.8989999999999982,6.451000000000004,7.972999999999998,5.078000000000003,13.463999999999999C6.935000000000003,11.085999999999999,8.890000000000002,9.360999999999999,11.500000000000004,8.105999999999998C11.262000000000004,8.327999999999998,9.877000000000004,9.704999999999998,9.645000000000003,9.938999999999998C2.761000000000003,16.82,0.5900000000000034,26.448999999999998,2.926000000000003,28.784999999999997C4.702000000000003,30.559999999999995,7.919000000000003,30.259999999999998,11.614000000000004,28.448999999999998C13.333000000000004,29.325999999999997,15.279000000000003,29.819999999999997,17.340000000000003,29.819999999999997C22.890000000000004,29.819999999999997,27.593000000000004,26.245999999999995,29.297000000000004,21.270999999999997H22.461000000000006C21.521000000000004,23.006999999999998,19.681000000000004,24.186999999999998,17.569000000000006,24.186999999999998S13.619000000000007,23.006999999999998,12.678000000000006,21.270999999999997C12.259000000000006,20.485999999999997,12.019000000000005,18.948999999999998,12.019000000000005,17.999999999999996V17.978999999999996H23.12ZM27.798,4.615C28.761,5.589,28.737,7.380000000000001,27.912999999999997,9.615C26.500999999999998,7.462,24.449999999999996,5.767,22.026999999999997,4.798C24.617,3.688,26.724,3.541,27.798,4.615ZM17.341,9.627C20.173000000000002,9.627,22.494,11.853000000000002,22.650000000000002,14.644000000000002H12.031C12.188,11.853,14.508,9.627,17.341,9.627ZM4.708,28.342C3.479,27.113,3.85,24.531,5.433,21.421999999999997C6.418,24.187999999999995,8.34,26.509999999999998,10.815999999999999,28.005999999999997C8.074,29.252,5.831,29.463,4.708,28.342Z" stroke-width="0" transform="scale(0.4)"></path><rect style="-webkit-tap-highlight-color: rgba(0, 0, 0, 0); opacity: 0;" x="0" y="0" width="32" height="32" r="0" rx="0" ry="0" fill="#ffffff" stroke="none" stroke-width="0" opacity="0"></rect></svg>
<rect x="192" y="18" width="57" height="2" fill="#26b36b" class="indicator"/>
<rect x="192" y="21" width="57" height="16" fill="#26b36b" class="matrix-bg"/>
<svg x="218" y="23" width="13" height="13" version="1.1" xmlns="http://www.w3.org/2000/svg"><path style="-webkit-tap-highlight-color: rgba(0, 0, 0, 0);" fill="#000000" stroke="none" d="M15.517,15.082C11.766,13.141,10.039,11.203000000000001,4.933999999999999,13.999C5.8839999999999995,10.671000000000001,6.357999999999999,9.007000000000001,7.308,5.678000000000001C12.415,2.882000000000001,14.141,4.819000000000001,17.892,6.760000000000001C16.941,10.088,16.467,11.752,15.517,15.082ZM15.042,16.746C11.29,14.806,9.564,12.866999999999999,4.458,15.662999999999998C3.508,18.991,3.0330000000000004,20.654999999999998,2.083,23.983999999999998C7.189,21.188,8.916,23.127,12.669,25.066C13.618,21.738,14.092,20.074,15.042,16.746ZM29.918,7.716C24.813,10.512,23.086,9.453,19.334,7.513C18.384,10.842,17.909,12.507,16.959,15.834999999999999C20.711,17.776,22.436999999999998,18.835,27.543,16.038C28.492,12.709,28.968,11.045,29.918,7.716ZM27.068,17.701C21.962000000000003,20.499000000000002,20.235,19.438000000000002,16.483,17.498C15.533000000000001,20.827,15.058,22.492,14.108,25.82C17.86,27.761,19.586,28.821,24.693,26.022000000000002C25.644,22.693,26.119,21.029,27.068,17.701Z" stroke-width="0" transform="scale(0.4)"></path><rect style="-webkit-tap-highlight-color: rgba(0, 0, 0, 0); opacity: 0;" x="0" y="0" width="32" height="32" r="0" rx="0" ry="0" fill="#000000" stroke="none" stroke-width="0" opacity="0"></rect></svg>
<rect x="192" y="38" width="57" height="16" fill="#26b36b" class="matrix-bg"/>
<svg x="218" y="40" width="13" height="13" version="1.1" xmlns="http://www.w3.org/2000/svg"><path style="-webkit-tap-highlight-color: rgba(0, 0, 0, 0);" fill="#000000" stroke="none" d="M15.517,15.082C11.766,13.141,10.039,11.203000000000001,4.933999999999999,13.999C5.8839999999999995,10.671000000000001,6.357999999999999,9.007000000000001,7.308,5.678000000000001C12.415,2.882000000000001,14.141,4.819000000000001,17.892,6.760000000000001C16.941,10.088,16.467,11.752,15.517,15.082ZM15.042,16.746C11.29,14.806,9.564,12.866999999999999,4.458,15.662999999999998C3.508,18.991,3.0330000000000004,20.654999999999998,2.083,23.983999999999998C7.189,21.188,8.916,23.127,12.669,25.066C13.618,21.738,14.092,20.074,15.042,16.746ZM29.918,7.716C24.813,10.512,23.086,9.453,19.334,7.513C18.384,10.842,17.909,12.507,16.959,15.834999999999999C20.711,17.776,22.436999999999998,18.835,27.543,16.038C28.492,12.709,28.968,11.045,29.918,7.716ZM27.068,17.701C21.962000000000003,20.499000000000002,20.235,19.438000000000002,16.483,17.498C15.533000000000001,20.827,15.058,22.492,14.108,25.82C17.86,27.761,19.586,28.821,24.693,26.022000000000002C25.644,22.693,26.119,21.029,27.068,17.701Z" stroke-width="0" transform="scale(0.4)"></path><rect style="-webkit-tap-highlight-color: rgba(0, 0, 0, 0); opacity: 0;" x="0" y="0" width="32" height="32" r="0" rx="0" ry="0" fill="#000000" stroke="none" stroke-width="0" opacity="0"></rect></svg>
<text x="192" y="14" font-size="11px" text-anchor="left">
<tspan x="208" font-weight="200" fill="white" class="head">IE</tspan>
<tspan x="199" dy="17px" font-weight="600">11</tspan>
<tspan x="233" dy="0" font-size="7px" fill="white">8.1</tspan>
<tspan x="199" dy="17px" font-weight="600">10</tspan>
<tspan x="233" dy="0" font-size="7px" fill="white">8</tspan>
</text>
<svg x="273" y="4" width="13" height="12" version="1.1" xmlns="http://www.w3.org/2000/svg"><path fill="#444444" stroke="none" d="M5,9.511C5,10.346,4.412,11,3.479,11C2.586,11,2,10.346,2,9.511C2,8.654,2.609,8,3.5,8C4.412,8,4.978,8.654,5,9.511ZM2,22H5V12H2V22ZM19.698,14.86C19.698,19.406,16.95,22,13.219000000000001,22C9.407,22,7,19.085,7,15.101C7,10.937,9.607,8,13.418,8C17.371,8,19.698,10.997,19.698,14.86ZM17.088,14.961C17.088,12.405000000000001,15.824000000000002,9.992,13.358,9.992C10.91,9.992,9.606000000000002,12.265,9.606000000000002,15.061C9.606000000000002,17.817,10.991000000000001,20.012,13.358,20.012C15.746,20.012,17.09,17.798,17.088,14.961ZM26.526,13.901C24.721,13.197,23.936,12.713,23.936,11.665C23.936,10.879999999999999,24.62,10.033999999999999,26.188,10.033999999999999C27.455,10.033999999999999,28.391,10.416999999999998,28.878,10.678999999999998L29.482,8.685999999999998C28.766,8.322,27.696,8,26.215,8C23.282,8,21.434,9.692,21.434,11.908C21.434,13.862,22.857,15.049,25.088,15.856C26.817,16.481,27.496000000000002,17.084,27.496000000000002,18.112C27.496000000000002,19.22,26.608,19.962999999999997,25.017000000000003,19.962999999999997C23.750000000000004,19.962999999999997,22.545,19.563,21.746000000000002,19.098999999999997L21.206000000000003,21.153999999999996C21.949,21.597,23.435,22,24.858,22C28.354,22,30,20.116,30,17.932C30.024,15.976,28.879,14.788,26.526,13.901Z" stroke-width="0" transform="scale(0.4)"></path></svg>
<rect x="273" y="18" width="57" height="2" fill="#ff0000" class="indicator"/>
<rect x="273" y="21" width="57" height="16" fill="#ff0000" class="matrix-bg"/>
<svg version="1.1" xmlns="http://www.w3.org/2000/svg" x="299" y="23" width="13" height="13" viewBox="0 0 101 121" enable-background="new 0 0 101 121" xml:space="preserve">
<g>
  <path d="M28.709,28.63c3.516,0,7.758,0.726,12.727,2.179c5.015,1.454,8.343,2.18,9.984,2.18c2.109,0,5.555-0.82,10.336-2.461
    c4.781-1.64,8.93-2.461,12.445-2.461c5.766,0,10.898,1.547,15.398,4.641c2.531,1.781,5.039,4.195,7.523,7.242
    c-3.75,3.188-6.492,6.024-8.227,8.508c-3.141,4.5-4.711,9.469-4.711,14.905c0,5.953,1.664,11.32,4.992,16.104
    c3.328,4.78,7.125,7.803,11.393,9.068c-1.783,5.768-4.736,11.795-8.861,18.074c-6.234,9.42-12.422,14.131-18.562,14.131
    c-2.438,0-5.812-0.77-10.125-2.32c-4.266-1.551-7.875-2.32-10.828-2.32s-6.398,0.801-10.335,2.391
    c-3.891,1.64-7.055,2.459-9.493,2.459c-7.359,0-14.578-6.229-21.656-18.699C3.631,89.919,0.092,77.824,0.092,65.967
    c0-11.017,2.695-19.993,8.086-26.931C13.615,32.098,20.459,28.63,28.709,28.63 M73.006,0.927c0.188,0.609,0.305,1.148,0.352,1.617
    s0.07,0.938,0.07,1.406c0,3-0.703,6.281-2.109,9.844c-1.406,3.562-3.633,6.867-6.68,9.914c-2.625,2.578-5.227,4.312-7.805,5.203
    c-1.641,0.516-4.125,0.914-7.453,1.195c0.094-7.125,1.945-13.289,5.555-18.492C58.592,6.412,64.615,2.849,73.006,0.927"/>
</g>
</svg>
<text x="273" y="14" font-size="11px" text-anchor="left">
<tspan x="289" font-weight="200" fill="white" class="head">iPhone</tspan>
<tspan x="280" dy="17px" font-weight="600">7.0</tspan>
<tspan x="314" dy="0" font-size="7px" fill="white">10.9</tspan>
</text>
<svg x="354" y="4" width="13" height="12" version="1.1" xmlns="http://www.w3.org/2000/svg"><path fill="#00397f" stroke="none" d="M29.473,12.204C27.377,4.763000000000001,19.647,0.4320000000000004,12.204999999999998,2.5280000000000005C11.530999999999999,2.7170000000000005,10.879999999999999,2.9550000000000005,10.258,3.2350000000000003C10.244,3.216,10.229999999999999,3.1950000000000003,10.213999999999999,3.176C10.493999999999998,2.795,10.572999999999999,2.353,10.383999999999999,1.991C10.139,1.528,9.521999999999998,1.3450000000000002,8.847999999999999,1.534C8.703,1.576,8.558,1.633,8.42,1.705C7.625,2.125,7.24,2.906,7.543,3.4850000000000003C7.729,3.836,8.13,4.026,8.608,4.014C8.613,4.042,8.622,4.07,8.631,4.097C3.4540000000000006,7.297000000000001,0.7949999999999999,13.643,2.527,19.791C4.623,27.236,12.354,31.566000000000003,19.790000000000003,29.473C27.236,27.377,31.566,19.645,29.473,12.204ZM8.614,3.547C8.306,3.559,8.057,3.458,7.956,3.268C7.782,2.932,8.091,2.407,8.637,2.119C8.745000000000001,2.063,8.861,2.015,8.972000000000001,1.9850000000000003C9.424000000000001,1.8580000000000003,9.833000000000002,1.9490000000000003,9.969000000000001,2.2090000000000005C10.074000000000002,2.4080000000000004,10.008000000000001,2.6710000000000007,9.823,2.9150000000000005C9.586,2.832,9.319,2.84,9.08,2.966C8.837,3.091,8.679,3.308,8.614,3.547ZM25.588,21.377C24.672,23.014,23.381,24.358999999999998,21.826,25.332L20.035,23.674L20.379,26.088C19.93,26.279,19.459,26.447000000000003,18.983,26.584C16.156,27.381,13.186,27.025,10.625,25.594C8.986,24.674,7.640000000000001,23.381,6.675,21.828000000000003L8.326,20.035000000000004L5.913,20.379000000000005C5.719,19.928000000000004,5.553,19.461000000000006,5.418,18.983000000000004C4.622,16.153000000000006,4.972,13.186000000000003,6.41,10.626000000000005C7.327,8.985000000000005,8.619,7.641000000000005,10.17,6.674000000000005L11.967,8.326000000000004L11.624,5.9150000000000045C12.074,5.719000000000005,12.539000000000001,5.553000000000004,13.018,5.417000000000004C15.844000000000001,4.622000000000004,18.815,4.974000000000005,21.373,6.411000000000004C23.012,7.327000000000004,24.361,8.620000000000005,25.326,10.171000000000003L23.674,11.964000000000002L26.088,11.624000000000002C26.279,12.073000000000002,26.447000000000003,12.538000000000002,26.580000000000002,13.020000000000003C27.381,15.849,27.027,18.813,25.588,21.377ZM22.236,14.56L18.873,14.513C18.676000000000002,14.143,18.400000000000002,13.843,18.096,13.581L18.813,11.489999999999998L17.261,13.065999999999999C16.889,12.908999999999999,16.497999999999998,12.794999999999998,16.08,12.783999999999999L14.541999999999998,9.796999999999999L14.493999999999998,13.159999999999998C14.125999999999998,13.354,13.826999999999998,13.630999999999998,13.565999999999997,13.936999999999998L11.473999999999997,13.220999999999998L13.045999999999996,14.771999999999998C12.890999999999996,15.141999999999998,12.774999999999995,15.534999999999998,12.765999999999996,15.951999999999998L9.777999999999997,17.493L13.140999999999996,17.538C13.334999999999997,17.908,13.612999999999996,18.211,13.918999999999997,18.469L13.2,20.561L14.754,18.985C15.123,19.143,15.514999999999999,19.256,15.931999999999999,19.264L17.471999999999998,22.253999999999998L17.520999999999997,18.892999999999997C17.888999999999996,18.697999999999997,18.189999999999998,18.419999999999998,18.449999999999996,18.113999999999997L20.541999999999994,18.833L18.965999999999994,17.281C19.123999999999995,16.91,19.236999999999995,16.52,19.248999999999995,16.102L22.236,14.56ZM16.617,18.623C15.186,18.955000000000002,13.751000000000001,18.07,13.412,16.637C13.072000000000001,15.202,13.961,13.769,15.396,13.432C16.827,13.094000000000001,18.263,13.982000000000001,18.603,15.414C18.941,16.849,18.051,18.285,16.617,18.623Z" stroke-width="0" transform="scale(0.4)"></path><path fill="#8d0102" stroke="none" d="M17.172,16.954L9.619,23.834L14.831,15.046999999999999L22.381,8.165999999999999L17.172,16.954Z" stroke-width="0" transform="scale(0.4)"></path></svg>
<rect x="354" y="18" width="57" height="2" fill="#26b36b" class="indicator"/>
<rect x="354" y="21" width="57" height="16" fill="#26b36b" class="matrix-bg"/>
<svg version="1.1" xmlns="http://www.w3.org/2000/svg" x="380" y="23" width="13" height="13" viewBox="0 0 101 121" enable-background="new 0 0 101 121" xml:space="preserve">
<g>
  <path d="M28.709,28.63c3.516,0,7.758,0.726,12.727,2.179c5.015,1.454,8.343,2.18,9.984,2.18c2.109,0,5.555-0.82,10.336-2.461
    c4.781-1.64,8.93-2.461,12.445-2.461c5.766,0,10.898,1.547,15.398,4.641c2.531,1.781,5.039,4.195,7.523,7.242
    c-3.75,3.188-6.492,6.024-8.227,8.508c-3.141,4.5-4.711,9.469-4.711,14.905c0,5.953,1.664,11.32,4.992,16.104
    c3.328,4.78,7.125,7.803,11.393,9.068c-1.783,5.768-4.736,11.795-8.861,18.074c-6.234,9.42-12.422,14.131-18.562,14.131
    c-2.438,0-5.812-0.77-10.125-2.32c-4.266-1.551-7.875-2.32-10.828-2.32s-6.398,0.801-10.335,2.391
    c-3.891,1.64-7.055,2.459-9.493,2.459c-7.359,0-14.578-6.229-21.656-18.699C3.631,89.919,0.092,77.824,0.092,65.967
    c0-11.017,2.695-19.993,8.086-26.931C13.615,32.098,20.459,28.63,28.709,28.63 M73.006,0.927c0.188,0.609,0.305,1.148,0.352,1.617
    s0.07,0.938,0.07,1.406c0,3-0.703,6.281-2.109,9.844c-1.406,3.562-3.633,6.867-6.68,9.914c-2.625,2.578-5.227,4.312-7.805,5.203
    c-1.641,0.516-4.125,0.914-7.453,1.195c0.094-7.125,1.945-13.289,5.555-18.492C58.592,6.412,64.615,2.849,73.006,0.927"/>
</g>
</svg>
<text x="354" y="14" font-size="11px" text-anchor="left">
<tspan x="370" font-weight="200" fill="white" class="head">Safari</tspan>
<tspan x="361" dy="17px" font-weight="600">7</tspan>
<tspan x="395" dy="0" font-size="7px" fill="white">10.9</tspan>
</text>
</g></svg>